<?xml version="1.0" encoding="UTF-8"?>
<svg xmlns="http://www.w3.org/2000/svg" viewBox="0 0 64 64" width="512" height="512" shape-rendering="geometricPrecision">
  <title>Disk Cutter — Hazard Rim</title>
  
  <circle cx="32" cy="32" r="24" fill="#ff4a17"></circle>
  <path d="M32.000 8.000 L34.118 5.083 L35.754 8.295 L38.303 5.746 L39.416 9.175 L42.332 7.055 L42.896 10.616 L46.107 8.979 L46.107 12.584 L49.535 11.469 L48.971 15.029 L52.531 14.465 L51.416 17.893 L55.021 17.893 L53.384 21.104 L56.945 21.668 L54.825 24.584 L58.254 25.697 L55.705 28.246 L58.917 29.882 L56.000 32.000 L58.917 34.118 L55.705 35.754 L58.254 38.303 L54.825 39.416 L56.945 42.332 L53.384 42.896 L55.021 46.107 L51.416 46.107 L52.531 49.535 L48.971 48.971 L49.535 52.531 L46.107 51.416 L46.107 55.021 L42.896 53.384 L42.332 56.945 L39.416 54.825 L38.303 58.254 L35.754 55.705 L34.118 58.917 L32.000 56.000 L29.882 58.917 L28.246 55.705 L25.697 58.254 L24.584 54.825 L21.668 56.945 L21.104 53.384 L17.893 55.021 L17.893 51.416 L14.465 52.531 L15.029 48.971 L11.469 49.535 L12.584 46.107 L8.979 46.107 L10.616 42.896 L7.055 42.332 L9.175 39.416 L5.746 38.303 L8.295 35.754 L5.083 34.118 L8.000 32.000 L5.083 29.882 L8.295 28.246 L5.746 25.697 L9.175 24.584 L7.055 21.668 L10.616 21.104 L8.979 17.893 L12.584 17.893 L11.469 14.465 L15.029 15.029 L14.465 11.469 L17.893 12.584 L17.893 8.979 L21.104 10.616 L21.668 7.055 L24.584 9.175 L25.697 5.746 L28.246 8.295 L29.882 5.083 L32.000 8.000 Z" fill="#ff4a17"></path>
  
  <circle cx="32" cy="32" r="20" fill="#0c0c0b"></circle>
  
  <circle cx="32" cy="32" r="17" fill="#f1ede2"></circle>
  
  <g stroke="#0c0c0b" stroke-width="0.5" fill="none">
    <circle cx="32" cy="32" r="15"></circle>
    <circle cx="32" cy="32" r="12.5"></circle>
    <circle cx="32" cy="32" r="10"></circle>
    <circle cx="32" cy="32" r="7.5"></circle>
  </g>
  
  <circle cx="32" cy="32" r="3.5" fill="#0c0c0b"></circle>
</svg>